<svg xmlns="http://www.w3.org/2000/svg" width="17" height="16.951" viewBox="0 0 17 16.951">
  <g id="Group_57" data-name="Group 57" transform="translate(-348.008 -143.001)">
    <path id="Path_66" data-name="Path 66" d="M363.342,144.8l-.8-.8a3.4,3.4,0,0,0-4.811,0l-2.379,2.38a3.483,3.483,0,0,1,3.008.2l.974-.973a1.134,1.134,0,0,1,1.6,0l.8.8a1.134,1.134,0,0,1,0,1.6l-4.81,4.81a1.135,1.135,0,0,1-1.6,0l-.666-.666-1.651,1.556.713.713a3.4,3.4,0,0,0,4.81,0l4.811-4.81A3.4,3.4,0,0,0,363.342,144.8Z" transform="translate(0.67)"/>
    <path id="Path_67" data-name="Path 67" d="M353.987,155.843l-.973.973a1.136,1.136,0,0,1-1.6,0l-.8-.8a1.135,1.135,0,0,1,0-1.6l4.81-4.81a1.133,1.133,0,0,1,1.6,0l.666.664,1.652-1.555-.713-.714a3.4,3.4,0,0,0-4.811,0L349,152.808a3.4,3.4,0,0,0,0,4.81l.8.8a3.4,3.4,0,0,0,4.81,0l2.38-2.38A3.49,3.49,0,0,1,353.987,155.843Z" transform="translate(0 0.536)"/>
  </g>
</svg>
