<?xml version="1.0" encoding="utf-8"?>
<!-- Generator: Adobe Illustrator 24.2.0, SVG Export Plug-In . SVG Version: 6.00 Build 0)  -->
<svg version="1.1" id="Layer_1"
	xmlns="http://www.w3.org/2000/svg"
	xmlns:xlink="http://www.w3.org/1999/xlink" x="0px" y="0px" viewBox="0 0 277 69" style="enable-background:new 0 0 277 69;" xml:space="preserve">
	<style type="text/css">
	.st0{enable-background:new    ;}
	.st1{fill:#0D99AB;}
	.st2{fill:#02356B;}
	.st3{fill:#FFFFFF;}
	</style>
	<g class="st0">
		<path class="st1" d="M95.4,20.2c-0.1-1.6-0.8-2-2.1-2h-2.7V23l2.6-0.1c1.2,0,1.7-0.1,1.9-1.4h0.2v3.6h-0.3
		c-0.1-1.5-0.6-1.5-1.9-1.5l-2.6,0v4.2c0.3,0.6,1.3,0.9,2.1,1V29h-5.5v-0.3c0.8,0,1.6-0.3,1.9-0.9v-9.3c-0.2-0.4-1-0.7-1.8-0.7v-0.3
		h6.7c1,0,1.2-0.1,1.3-0.5h0.2v3.1H95.4z"/>
		<path class="st1" d="M100.4,29.2c-2.3,0-3.7-1.7-3.7-4.1c0-2.3,1.7-3.9,3.9-3.9c2.2,0,3.7,1.7,3.7,4
		C104.3,27.4,102.6,29.2,100.4,29.2z M100.2,21.6c-1.1,0-2,1.5-2,3c0,2.3,0.9,4.1,2.6,4.1c1.3,0,2.1-1.4,2.1-3.1
		C102.8,23.2,101.9,21.6,100.2,21.6z"/>
		<path class="st1" d="M110.5,22.9h-0.1c-0.6-0.3-1-0.5-1.5-0.5c-0.4,0-0.7,0.3-1.1,0.7v5c0.2,0.4,0.9,0.5,1.7,0.6V29h-4.1v-0.3
		c0.9-0.1,1-0.3,1.1-0.6V23c0-0.4-0.3-0.7-1.1-0.8V22l2.2-0.8h0.1l0,1.7c0.8-0.9,1.5-1.6,2.2-1.6c0.5,0,0.8,0.1,1.2,0.3L110.5,22.9z
		"/>
		<path class="st1" d="M114.3,29.1c-1.5,0-2-0.9-2-2.3c0-1.7,0.1-3,0.1-4.7l-1,0v-0.2l2.1-2.1h0.2l0,1.7h2.7v0.7l-2.7,0
		c0,1.8-0.1,3-0.1,4.6c0,1,0.6,1.6,1.7,1.6c0.4,0,1-0.2,1.2-0.3v0.2C116.1,28.6,115,29.1,114.3,29.1z"/>
		<path class="st1" d="M123,29.2h-0.1l-0.1-1.2c-0.8,0.6-2.2,1.2-2.8,1.2c-1.6,0-2-1-2-2.5v-3.9c0-0.6-0.3-0.7-1.2-1v-0.2l2.4-0.5
		h0.1l0,5.4c0,1,0.6,1.8,1.7,1.8c0.7,0,1.3-0.3,1.8-0.6v-5c0-0.7-0.3-0.8-1.5-1v-0.2l2.7-0.5h0.1v6.4c0,0.4,0.2,0.6,0.4,0.7l1.2-0.2
		v0.3L123,29.2z"/>
		<path class="st1" d="M131.1,29v-0.3c0.9-0.1,1-0.3,1.1-0.6v-4.3c0-1-0.7-1.8-1.7-1.8c-0.5,0-1.3,0.3-1.9,0.6v5.5
		c0.2,0.4,0.3,0.5,1.2,0.6V29h-3.6v-0.3c0.9-0.1,1-0.3,1.2-0.6V23c0-0.4-0.3-0.6-1.1-0.8V22l2.3-0.8h0.1v1.3
		c0.8-0.6,2.1-1.3,2.8-1.3c1.6,0,2.1,1,2.1,2.4v4.6c0.4,0.3,0.7,0.3,1.5,0.4V29H131.1z"/>
		<path class="st1" d="M139.2,29.2c-2.3,0-3.7-1.7-3.7-4.1c0-2.3,1.7-3.9,3.9-3.9c2.2,0,3.7,1.7,3.7,4
		C143.1,27.4,141.4,29.2,139.2,29.2z M139,21.6c-1.1,0-2,1.5-2,3c0,2.3,0.9,4.1,2.6,4.1c1.3,0,2.1-1.4,2.1-3.1
		C141.6,23.2,140.7,21.6,139,21.6z"/>
		<path class="st1" d="M150.5,18c-0.6-0.4-1.3-0.9-2.2-1c-1.2,0.1-1.7,1-1.7,4.4h2.4v0.6h-2.4l0.1,5.9c0.4,0.7,1.2,0.7,1.8,0.7V29
		H144v-0.3c0.9-0.1,1.2-0.3,1.3-0.6l0-6.1h-1.4v-0.3l1.3-0.4c0-0.8,0.2-1.8,0.4-2.3c0.7-1.6,1.8-2.8,3.7-2.8c0.9,0,1.7,0.5,1.7,0.9
		C151,17.5,150.8,17.9,150.5,18z"/>
		<path class="st1" d="M155.8,18c-0.6-0.4-1.3-0.9-2.2-1c-1.2,0.1-1.7,1-1.7,4.4h2.4v0.6h-2.4l0.1,5.9c0.4,0.7,1.2,0.7,1.8,0.7V29
		h-4.5v-0.3c0.9-0.1,1.2-0.3,1.3-0.6l0-6.1h-1.4v-0.3l1.4-0.4c0-0.8,0.2-1.8,0.4-2.3c0.7-1.6,1.8-2.8,3.7-2.8c0.9,0,1.7,0.5,1.7,0.9
		C156.4,17.5,156.1,17.9,155.8,18z"/>
		<path class="st1" d="M168.5,18.9l-4.3,10.3h-0.7l-3.6-10.5c-0.1-0.5-1.1-0.8-1.9-0.9v-0.3h5.2v0.3c-0.8,0-1.6,0.3-1.8,0.7l2.9,8.6
		l3.3-8.4c-0.2-0.4-1.1-0.9-1.9-0.9v-0.3h4.6v0.3C169.5,17.9,168.7,18.4,168.5,18.9z"/>
		<path class="st1" d="M170.1,29v-0.3c0.9-0.1,1-0.3,1.2-0.6l0-5.1c0-0.4-0.4-0.6-1.2-0.7v-0.2l2.2-0.8h0.2v6.9
		c0.2,0.4,0.3,0.5,1.2,0.6V29H170.1z M171.7,18.2c-0.5,0-0.9-0.4-0.9-0.8c0-0.4,0.4-0.9,0.9-0.9c0.5,0,0.9,0.5,0.9,0.9
		C172.6,17.8,172.3,18.2,171.7,18.2z"/>
		<path class="st1" d="M180.7,29.3h-0.2l-0.2-1.3c-0.8,0.6-1.8,1.2-2.7,1.2c-1.6,0-3.1-1.3-3.1-3.7c0-2.4,1.6-4.3,4.5-4.3
		c0.5,0,1,0.2,1.3,0.3l-0.1-3.2c0-0.7-0.3-0.9-1.5-1v-0.2l2.8-0.8h0.2v0.2l-0.3,0.6l0,10.5c0,0.4,0.2,0.7,0.3,0.8l1.5-0.2v0.3
		L180.7,29.3z M180.3,23.2c-0.3-1-1.4-1.5-2.2-1.5c-1.4,0-2.2,1.6-2.2,3.3c0,1.8,1,3.3,2.8,3.3c0.5,0,1.1-0.3,1.6-0.6L180.3,23.2z" />
		<path class="st1" d="M186.9,29.1c-1.8,0-3.2-1.5-3.2-3.6c0-2.6,1.5-4.3,3.7-4.3c1.8,0,2.6,1,2.6,2.6V24l-4.9-0.1
		c0,0.3-0.1,0.7-0.1,1c0,2.1,1.3,3.4,2.8,3.4c0.9,0,1.5-0.3,2.2-0.9l0.2,0.2C189.2,28.5,188.4,29.1,186.9,29.1z M187.1,21.6
		c-1,0-1.7,0.7-1.9,2.1l3.5,0C188.7,22.5,187.9,21.6,187.1,21.6z"/>
		<path class="st1" d="M194.7,29.2c-2.2,0-3.7-1.7-3.7-4.1c0-2.3,1.7-3.9,3.9-3.9c2.2,0,3.7,1.7,3.7,4
		C198.6,27.4,196.9,29.2,194.7,29.2z M194.5,21.6c-1.1,0-2,1.5-2,3c0,2.3,0.9,4.1,2.6,4.1c1.3,0,2.1-1.4,2.1-3.1
		C197.2,23.2,196.2,21.6,194.5,21.6z"/>
		<path class="st1" d="M209.6,29v-0.3c0.8,0,1.6-0.3,1.8-0.7l-1.3-3.8h-3.5l-1.3,3.6c0.2,0.4,1,0.8,1.8,0.9V29h-4.5v-0.3
		c0.8,0,1.3-0.2,1.7-0.7c0.5-1.2,1.1-2.8,1.7-4.2c0.7-2,1.4-4,1.9-5.2c0.2-0.6,0.2-0.8,0.2-1.2h1.6c0.1,0.6,0.1,0.8,0.3,1.3
		c0.6,1.9,1.1,3.5,1.6,5c0.4,1.3,0.9,2.6,1.5,4.2c0.2,0.5,0.8,0.8,1.7,0.8V29H209.6z M208.7,19.7l-0.3-1l-0.3,1l-1.3,3.8h3.1
		L208.7,19.7z"/>
		<path class="st1" d="M219.7,22.9h-0.1c-0.6-0.3-1-0.5-1.5-0.5c-0.4,0-0.7,0.3-1.1,0.7v5c0.2,0.4,0.9,0.5,1.7,0.6V29h-4.1v-0.3
		c0.9-0.1,1-0.3,1.1-0.6V23c0-0.4-0.3-0.7-1.1-0.8V22l2.2-0.8h0.1l0,1.7c0.8-0.9,1.5-1.6,2.2-1.6c0.5,0,0.8,0.1,1.2,0.3L219.7,22.9z
		"/>
		<path class="st1" d="M223.8,29.1c-1.8,0-3.2-1.5-3.2-3.7c0-2.6,1.9-4.3,4.2-4.3c1.3,0,1.9,0.6,2,0.9c-0.1,0.3-0.3,0.8-0.6,0.9
		c-0.8-0.5-1.5-1.1-2.7-1.2c-0.9,0.2-1.6,1.3-1.6,3.2c0,2,1.1,3.3,2.7,3.3c0.8,0,1.6-0.5,2-1.1l0.2,0.3
		C226,28.6,224.9,29.1,223.8,29.1z"/>
		<path class="st1" d="M232.1,29v-0.3c0.9-0.1,1.1-0.3,1.2-0.7c0.1-0.5,0.2-1.8,0.2-3.1c0-1.8-0.2-3-2-3c-0.5,0-1.2,0.3-1.7,0.5v5.6
		c0.2,0.4,0.3,0.5,1.1,0.6V29h-3.6v-0.3c0.9-0.1,1-0.3,1.2-0.6v-9.9c0-0.6,0-0.9-1.2-1v-0.2l2.5-0.8h0.2v0.2l-0.2,0.7v5.2
		c0.8-0.6,2-1.2,2.6-1.2c2.2,0,2.4,2,2.4,3.8c0,1.1-0.1,2.4-0.2,3.4c0.3,0.1,1,0.3,1.6,0.3V29H232.1z"/>
		<path class="st1" d="M236.7,29v-0.3c0.9-0.1,1-0.3,1.2-0.6l0-5.1c0-0.4-0.4-0.6-1.2-0.7v-0.2l2.2-0.8h0.2v6.9
		c0.2,0.4,0.3,0.5,1.2,0.6V29H236.7z M238.4,18.2c-0.5,0-0.9-0.4-0.9-0.8c0-0.4,0.4-0.9,0.9-0.9c0.5,0,0.9,0.5,0.9,0.9
		C239.3,17.8,238.9,18.2,238.4,18.2z"/>
		<path class="st1" d="M247.4,22.7l-2.7,6.3l-0.4,0.1l-2.6-6.6c-0.2-0.5-0.6-0.8-1.4-0.9v-0.3h3.8v0.3c-0.6,0-0.9,0.2-1.2,0.4l2,5.3
		l1.9-5c-0.1-0.3-0.6-0.6-1.3-0.7v-0.3h3.1v0.3C248,21.7,247.6,22.2,247.4,22.7z"/>
		<path class="st1" d="M252.2,29.1c-1.8,0-3.2-1.5-3.2-3.6c0-2.6,1.5-4.3,3.7-4.3c1.8,0,2.6,1,2.6,2.6V24l-4.9-0.1
		c0,0.3-0.1,0.7-0.1,1c0,2.1,1.3,3.4,2.8,3.4c0.9,0,1.5-0.3,2.2-0.9l0.2,0.2C254.5,28.5,253.7,29.1,252.2,29.1z M252.4,21.6
		c-1,0-1.7,0.7-1.9,2.1l3.5,0C254,22.5,253.2,21.6,252.4,21.6z"/>
	</g>
	<g class="st0">
		<path class="st1" d="M95.4,40.2c-0.1-1.6-0.8-2-2.1-2h-2.7V43l2.6-0.1c1.2,0,1.7-0.1,1.9-1.4h0.2v3.6h-0.3
		c-0.1-1.5-0.6-1.5-1.9-1.5l-2.6,0v4.2c0.3,0.6,1.3,0.9,2.1,1V49h-5.5v-0.3c0.8,0,1.6-0.3,1.9-0.9v-9.3c-0.2-0.4-1-0.7-1.8-0.7v-0.3
		h6.7c1,0,1.2-0.1,1.3-0.5h0.2v3.1H95.4z"/>
		<path class="st1" d="M100.4,49.2c-2.3,0-3.7-1.7-3.7-4.1c0-2.3,1.7-3.9,3.9-3.9c2.2,0,3.7,1.7,3.7,4
		C104.3,47.4,102.6,49.2,100.4,49.2z M100.2,41.6c-1.1,0-2,1.5-2,3c0,2.3,0.9,4.1,2.6,4.1c1.3,0,2.1-1.4,2.1-3.1
		C102.8,43.2,101.9,41.6,100.2,41.6z"/>
		<path class="st1" d="M110.5,42.9h-0.1c-0.6-0.3-1-0.5-1.5-0.5c-0.4,0-0.7,0.3-1.1,0.7v5c0.2,0.4,0.9,0.5,1.7,0.6V49h-4.1v-0.3
		c0.9-0.1,1-0.3,1.1-0.6V43c0-0.4-0.3-0.7-1.1-0.8V42l2.2-0.8h0.1l0,1.7c0.8-0.9,1.5-1.6,2.2-1.6c0.5,0,0.8,0.1,1.2,0.3L110.5,42.9z
		"/>
		<path class="st1" d="M123.5,49v-0.3c0.8,0,1.5-0.3,1.7-0.7v-4.5h-6.6V48c0.2,0.4,0.9,0.6,1.7,0.7V49h-4.9v-0.3
		c0.8,0,1.5-0.3,1.7-0.7v-9.5c-0.2-0.4-0.9-0.7-1.7-0.7v-0.3h4.9v0.3c-0.8,0-1.5,0.3-1.7,0.7v4.3h6.6v-4.3c-0.2-0.4-0.9-0.7-1.7-0.7
		v-0.3h4.9v0.3c-0.8,0-1.5,0.3-1.7,0.7V48c0.2,0.4,0.9,0.6,1.7,0.7V49H123.5z"/>
		<path class="st1" d="M132.8,49.2c-2.3,0-3.7-1.7-3.7-4.1c0-2.3,1.7-3.9,3.9-3.9c2.2,0,3.7,1.7,3.7,4
		C136.7,47.4,135,49.2,132.8,49.2z M132.6,41.6c-1.1,0-2,1.5-2,3c0,2.3,0.9,4.1,2.6,4.1c1.3,0,2.1-1.4,2.1-3.1
		C135.3,43.2,134.3,41.6,132.6,41.6z"/>
		<path class="st1" d="M137.6,49v-0.3c0.9-0.1,1.1-0.3,1.2-0.6v-9.8c0-0.6,0-1-1.2-1.1V37l2.5-0.8h0.2v0.2l-0.3,0.6v11.1
		c0.2,0.4,0.4,0.5,1.3,0.6V49H137.6z"/>
		<path class="st1" d="M145.8,49.2c-2.2,0-3.7-1.7-3.7-4.1c0-2.3,1.7-3.9,3.9-3.9c2.2,0,3.7,1.7,3.7,4
		C149.7,47.4,148,49.2,145.8,49.2z M145.6,41.6c-1.1,0-2,1.5-2,3c0,2.3,0.9,4.1,2.6,4.1c1.3,0,2.1-1.4,2.1-3.1
		C148.3,43.2,147.3,41.6,145.6,41.6z"/>
		<path class="st1" d="M154,49.1c-1.8,0-3.2-1.5-3.2-3.7c0-2.6,1.9-4.3,4.2-4.3c1.3,0,1.9,0.6,2,0.9c-0.1,0.3-0.3,0.8-0.6,0.9
		c-0.8-0.5-1.5-1.1-2.7-1.2c-0.9,0.2-1.6,1.3-1.6,3.2c0,2,1.1,3.3,2.7,3.3c0.8,0,1.6-0.5,2-1.1l0.2,0.3
		C156.1,48.6,155.1,49.1,154,49.1z"/>
		<path class="st1" d="M163,49.2c-0.9,0-1.2-0.7-1.3-1.2c-0.7,0.8-1.7,1.2-2.3,1.2c-0.8,0-1.7-0.6-1.7-1.6c0-0.5,0.1-1,0.3-1.4
		l3.7-1.4v-1.3c0-0.9-0.7-1.8-1.5-1.8c-0.5,0-1,0.6-1,1.5l-1.3,0.2v-0.1c0.5-1.5,2.4-2.2,3.2-2.2c1.6,0,2.1,0.8,2.1,2.2l0,3.9
		c0,0.8,0.4,1,0.8,1c0.4,0,0.6-0.1,1-0.4v0.3C164.4,48.6,163.6,49.2,163,49.2z M159.3,46.2c-0.1,0.3-0.1,0.7-0.1,1
		c0,0.6,0.3,1.2,1,1.2c0.6,0,1-0.2,1.6-0.6l0-2.7C161.2,45.3,159.8,45.9,159.3,46.2z"/>
		<path class="st1" d="M171.2,49.2h-0.1L171,48c-0.8,0.6-2.2,1.2-2.8,1.2c-1.6,0-2-1-2-2.5v-3.9c0-0.6-0.3-0.7-1.2-1v-0.2l2.4-0.5
		h0.1l0,5.4c0,1,0.6,1.8,1.7,1.8c0.7,0,1.3-0.3,1.8-0.6v-5c0-0.7-0.3-0.8-1.5-1v-0.2l2.7-0.5h0.1v6.4c0,0.4,0.2,0.6,0.4,0.7l1.2-0.2
		v0.3L171.2,49.2z"/>
		<path class="st1" d="M177.3,49.2c-1.3,0-2.1-0.3-2.5-0.5l-0.2-1.8h0.4c0.6,1,1.3,1.9,1.9,1.9c1.3,0,1.9-0.7,1.9-1.4
		c0-0.9-0.8-1.2-1.7-1.6c-1.5-0.6-2.2-1.1-2.2-2.4s1.2-2.2,2.8-2.2c1,0,1.7,0.3,2.1,0.5l0.1,1.7h-0.3c-0.5-1-1.2-1.8-1.8-1.8
		c-1.4,0-1.7,0.8-1.7,1.3c0,0.9,0.4,1.2,1.7,1.7c1.4,0.6,2.3,1.1,2.3,2.2C179.9,48.1,178.8,49.2,177.3,49.2z"/>
		<path class="st1" d="M183.9,49.1c-1.5,0-2-0.9-2-2.3c0-1.7,0.1-3,0.1-4.7l-1,0v-0.2l2.1-2.1h0.2l0,1.7h2.7v0.7l-2.7,0
		c0,1.8-0.1,3-0.1,4.6c0,1,0.6,1.6,1.7,1.6c0.4,0,1-0.2,1.2-0.3v0.2C185.7,48.6,184.6,49.1,183.9,49.1z"/>
		<path class="st1" d="M200.7,40.4c0-1.5-0.8-2.1-2.2-2.1l-2.1,0v9.4c0.4,0.8,1.4,1,2.2,1V49h-5.9v-0.3c0.8,0,2-0.3,2.2-0.8v-9.7
		l-2.1,0c-1.3,0-2.1,0.6-2.2,2.1h-0.2v-3.2h0.2c0.1,0.3,0.3,0.5,1.3,0.5h7.3c1,0,1.2-0.1,1.3-0.5h0.2v3.2H200.7z"/>
		<path class="st1" d="M203.1,49.1c-1.8,0-3.2-1.5-3.2-3.6c0-2.6,1.5-4.3,3.7-4.3c1.8,0,2.6,1,2.6,2.6V44l-4.9-0.1
		c0,0.3-0.1,0.7-0.1,1c0,2.1,1.3,3.4,2.8,3.4c0.9,0,1.5-0.3,2.2-0.9l0.2,0.2C205.4,48.5,204.6,49.1,203.1,49.1z M203.3,41.6
		c-1,0-1.7,0.7-1.9,2.1l3.5,0C204.9,42.5,204.2,41.6,203.3,41.6z"/>
		<path class="st1" d="M210.1,49.2c-1.3,0-2.1-0.3-2.5-0.5l-0.2-1.8h0.4c0.6,1,1.3,1.9,1.9,1.9c1.3,0,1.9-0.7,1.9-1.4
		c0-0.9-0.8-1.2-1.7-1.6c-1.5-0.6-2.2-1.1-2.2-2.4s1.2-2.2,2.8-2.2c1,0,1.7,0.3,2.1,0.5l0.1,1.7h-0.3c-0.5-1-1.2-1.8-1.8-1.8
		c-1.4,0-1.7,0.8-1.7,1.3c0,0.9,0.4,1.2,1.7,1.7c1.4,0.6,2.3,1.1,2.3,2.2C212.8,48.1,211.7,49.2,210.1,49.2z"/>
		<path class="st1" d="M216.8,49.1c-1.5,0-2-0.9-2-2.3c0-1.7,0.1-3,0.1-4.7l-1,0v-0.2l2.1-2.1h0.2l0,1.7h2.7v0.7l-2.7,0
		c0,1.8-0.1,3-0.1,4.6c0,1,0.6,1.6,1.7,1.6c0.4,0,1-0.2,1.2-0.3v0.2C218.6,48.6,217.5,49.1,216.8,49.1z"/>
		<path class="st1" d="M219.4,49v-0.3c0.9-0.1,1-0.3,1.2-0.6l0-5.1c0-0.4-0.4-0.6-1.2-0.7v-0.2l2.2-0.8h0.2v6.9
		c0.2,0.4,0.3,0.5,1.2,0.6V49H219.4z M221.1,38.2c-0.5,0-0.9-0.4-0.9-0.8c0-0.4,0.4-0.9,0.9-0.9c0.5,0,0.9,0.5,0.9,0.9
		C222,37.8,221.6,38.2,221.1,38.2z"/>
		<path class="st1" d="M235.3,49c-0.7,0-1.3,0-1.8,0.1v-0.3c0.8-0.1,1-0.3,1.1-0.6l-0.1-4.3c0-0.9-0.6-1.8-1.6-1.8
		c-0.5,0-1.3,0.3-1.9,0.6v5.4c0.2,0.4,0.3,0.5,1.2,0.6V49h-3.5v-0.3c0.9-0.1,1-0.3,1.1-0.6v-4.3c0-0.8-0.5-1.8-1.6-1.8
		c-0.5,0-1.3,0.3-1.9,0.6v5.5c0.2,0.4,0.3,0.5,1.2,0.6V49h-3.5v-0.3c0.9-0.1,1-0.3,1.1-0.6v-5.1c0-0.4-0.3-0.6-1.1-0.8V42l2.2-0.9
		h0.1v1.3c0.8-0.6,2.1-1.3,2.7-1.3c1.1,0,1.7,0.5,2,1.4c0.7-0.6,2.2-1.3,2.8-1.3c1.6,0,2,1,2,2.5l0.1,4.6c0.4,0.3,0.8,0.3,1.5,0.4
		V49C236.9,49,236.2,49,235.3,49z"/>
		<path class="st1" d="M241.6,49.2c-2.3,0-3.7-1.7-3.7-4.1c0-2.3,1.7-3.9,3.9-3.9c2.2,0,3.7,1.7,3.7,4
		C245.5,47.4,243.8,49.2,241.6,49.2z M241.4,41.6c-1.1,0-2,1.5-2,3c0,2.3,0.9,4.1,2.6,4.1c1.3,0,2.1-1.4,2.1-3.1
		C244,43.2,243.1,41.6,241.4,41.6z"/>
		<path class="st1" d="M251.4,49v-0.3c0.9-0.1,1-0.3,1.1-0.6v-4.3c0-1-0.7-1.8-1.7-1.8c-0.5,0-1.3,0.3-1.9,0.6v5.5
		c0.2,0.4,0.3,0.5,1.2,0.6V49h-3.6v-0.3c0.9-0.1,1-0.3,1.2-0.6V43c0-0.4-0.3-0.6-1.1-0.8V42l2.3-0.8h0.1v1.3
		c0.8-0.6,2.1-1.3,2.8-1.3c1.6,0,2.1,1,2.1,2.4v4.6c0.4,0.3,0.7,0.3,1.5,0.4V49H251.4z"/>
		<path class="st1" d="M255.8,49v-0.3c0.9-0.1,1-0.3,1.2-0.6l0-5.1c0-0.4-0.4-0.6-1.2-0.7v-0.2l2.2-0.8h0.2v6.9
		c0.2,0.4,0.3,0.5,1.2,0.6V49H255.8z M257.5,38.2c-0.5,0-0.9-0.4-0.9-0.8c0-0.4,0.4-0.9,0.9-0.9c0.5,0,0.9,0.5,0.9,0.9
		C258.4,37.8,258,38.2,257.5,38.2z"/>
		<path class="st1" d="M263.5,49.1c-1.8,0-3.2-1.5-3.2-3.6c0-2.6,1.5-4.3,3.7-4.3c1.8,0,2.6,1,2.6,2.6V44l-4.9-0.1
		c0,0.3-0.1,0.7-0.1,1c0,2.1,1.3,3.4,2.8,3.4c0.9,0,1.5-0.3,2.2-0.9l0.2,0.2C265.8,48.5,265,49.1,263.5,49.1z M263.7,41.6
		c-1,0-1.7,0.7-1.9,2.1l3.5,0C265.3,42.5,264.5,41.6,263.7,41.6z"/>
		<path class="st1" d="M270.5,49.2c-1.3,0-2.1-0.3-2.5-0.5l-0.2-1.8h0.4c0.6,1,1.3,1.9,1.9,1.9c1.3,0,1.9-0.7,1.9-1.4
		c0-0.9-0.8-1.2-1.7-1.6c-1.5-0.6-2.2-1.1-2.2-2.4s1.2-2.2,2.8-2.2c1,0,1.7,0.3,2.1,0.5l0.1,1.7h-0.3c-0.5-1-1.2-1.8-1.8-1.8
		c-1.4,0-1.7,0.8-1.7,1.3c0,0.9,0.4,1.2,1.7,1.7c1.4,0.6,2.3,1.1,2.3,2.2C273.2,48.1,272.1,49.2,270.5,49.2z"/>
	</g>
	<rect class="st2" width="69" height="69"/>
	<path class="st3" d="M29.1,29.8l-3.6,6.1v4.1c0.4,1,1.5,1.1,2.5,1.1v0.6h-7.1v-0.5c1-0.1,2.2-0.2,2.5-0.8v-4.2l-3.6-6.2
	c-0.5-1-1.4-1.6-2.5-1.6v-0.5h6.1v0.5c-0.6,0-1.3,0.2-1.8,0.5l3.4,5.9l3.3-5.8c-0.6-0.4-1.3-0.6-2-0.6v-0.5h5.2v0.5
	C30.5,28.3,29.6,28.9,29.1,29.8z M36.2,41.8c-0.9,0.1-1.7-0.5-1.8-1.4c-0.6,0.8-1.6,1.3-2.6,1.4c-1.1,0.1-2.1-0.7-2.2-1.8
	c0,0,0-0.1,0-0.1c0-0.6,0.2-1.2,0.5-1.8l4.4-1.6V35c0-1-0.5-1.9-1.5-1.9c-0.6,0-1.1,0.7-1.2,1.8l-1.9,0.3V35
	c0.6-1.6,2.2-2.6,3.9-2.7c2,0,2.7,1,2.7,2.7l-0.1,4.6c0,0.9,0.5,1.1,0.9,1.1c0.4-0.1,0.8-0.3,1.1-0.6v0.6
	C37.8,41.3,37.1,41.7,36.2,41.8L36.2,41.8z M31.9,38.3c-0.1,0.4-0.2,0.8-0.2,1.1c-0.1,0.7,0.4,1.2,1,1.3c0,0,0,0,0.1,0
	c0.6,0,1.2-0.3,1.6-0.7v-3C33.9,37.4,32.5,38,31.9,38.3z M38.5,41.7v-0.5c1-0.1,1.3-0.3,1.5-0.7V29.2c0-0.7-0.1-1-1.6-1.1v-0.4l4-1
	l0.1,0.4l-0.6,0.8v12.8c0.2,0.4,0.6,0.6,1.5,0.7v0.5L38.5,41.7z M48.6,41.8c-2.3,0-4.1-1.9-4.1-4.1c0-0.1,0-0.2,0-0.2
	c0-3.1,1.9-5.2,4.6-5.2c2.2,0,3.3,1.2,3.3,3.1v0.4l-5.9-0.1c-0.1,0.4-0.1,0.7-0.1,1.1c0,2.2,1.4,3.7,3.3,3.7c1,0,1.9-0.4,2.5-1.1
	l0.3,0.5C51.7,41.1,50.2,41.9,48.6,41.8L48.6,41.8z M48.7,33c-1.1,0-1.9,0.8-2.1,2.2l3.8-0.1C50.6,34.1,49.8,33.1,48.7,33
	C48.8,33,48.8,33,48.7,33z"/>
</svg>
