<svg xmlns="http://www.w3.org/2000/svg" width="188.255" height="33.68" viewBox="0 0 188.255 33.68">
  <g id="Group_142" data-name="Group 142" transform="translate(-223.745 -2623.307)">
    <g id="Group_140" data-name="Group 140" transform="translate(223.745 2623.307)">
      <path id="Path_150" data-name="Path 150" d="M95.492,20.235c-.1-1.618-.809-2.022-2.123-2.022h-2.73v4.853l2.629-.1c1.213,0,1.719-.1,1.921-1.415h.2v3.64h-.3c-.1-1.517-.607-1.517-1.921-1.517H90.538v4.246c.3.607,1.314.91,2.123,1.011v.2H87.1v-.3a2.1,2.1,0,0,0,1.921-.91v-9.4a2.192,2.192,0,0,0-1.82-.708v-.3h6.774c1.011,0,1.213-.1,1.314-.506h.2v3.134h0Z" transform="translate(-87.1 -16.191)" fill="#fff"/>
      <path id="Path_151" data-name="Path 151" d="M100.441,29.288c-2.325,0-3.741-1.719-3.741-4.145a3.825,3.825,0,0,1,3.943-3.943,3.75,3.75,0,0,1,3.741,4.044A3.971,3.971,0,0,1,100.441,29.288Zm-.2-7.684c-1.112,0-2.022,1.517-2.022,3.033,0,2.325.91,4.145,2.629,4.145,1.314,0,2.123-1.415,2.123-3.134C102.867,23.222,101.957,21.6,100.239,21.6Z" transform="translate(-86.994 -16.145)" fill="#fff"/>
      <path id="Path_152" data-name="Path 152" d="M110.556,22.919h-.1a3.352,3.352,0,0,0-1.517-.506c-.4,0-.708.3-1.112.708v5.055c.2.4.91.506,1.719.607v.3H105.4v-.3c.91-.1,1.011-.3,1.112-.607V23.02c0-.4-.3-.708-1.112-.809v-.2l2.224-.809h.1v1.719c.809-.91,1.517-1.618,2.224-1.618a2.4,2.4,0,0,1,1.213.3Z" transform="translate(-86.898 -16.145)" fill="#fff"/>
      <path id="Path_153" data-name="Path 153" d="M114.332,29.2c-1.517,0-2.022-.91-2.022-2.325,0-1.719.1-3.033.1-4.752H111.4v-.2l2.123-2.123h.2v1.719h2.73v.708h-2.73c0,1.82-.1,3.033-.1,4.651a1.519,1.519,0,0,0,1.719,1.618,3.534,3.534,0,0,0,1.213-.3v.2A4.861,4.861,0,0,1,114.332,29.2Z" transform="translate(-86.832 -16.16)" fill="#fff"/>
      <path id="Path_154" data-name="Path 154" d="M123.068,29.291h-.1l-.1-1.213a6.637,6.637,0,0,1-2.831,1.213c-1.618,0-2.022-1.011-2.022-2.528V22.82c0-.607-.3-.708-1.213-1.011v-.2l2.426-.506h.1v5.46a1.672,1.672,0,0,0,1.719,1.82,3.549,3.549,0,0,0,1.82-.607V22.719c0-.708-.3-.809-1.517-1.011v-.2l2.73-.506h.1v6.471a.728.728,0,0,0,.4.708l1.213-.2v.3Z" transform="translate(-86.772 -16.147)" fill="#fff"/>
      <path id="Path_155" data-name="Path 155" d="M131.154,29.086v-.3c.91-.1,1.011-.3,1.112-.607V23.829a1.729,1.729,0,0,0-1.719-1.82,5.25,5.25,0,0,0-1.921.607v5.561c.2.4.3.506,1.213.607v.3H126.2v-.3c.91-.1,1.011-.3,1.213-.607V23.02c0-.4-.3-.607-1.112-.809v-.2l2.325-.809h.1v1.314a6.449,6.449,0,0,1,2.831-1.314c1.618,0,2.123,1.011,2.123,2.426v4.651c.4.3.708.3,1.517.4v.4Z" transform="translate(-86.668 -16.145)" fill="#fff"/>
      <path id="Path_156" data-name="Path 156" d="M139.241,29.288c-2.325,0-3.741-1.719-3.741-4.145a3.825,3.825,0,0,1,3.943-3.943,3.75,3.75,0,0,1,3.741,4.044A3.971,3.971,0,0,1,139.241,29.288Zm-.2-7.684c-1.112,0-2.022,1.517-2.022,3.033,0,2.325.91,4.145,2.629,4.145,1.314,0,2.123-1.415,2.123-3.134C141.667,23.222,140.757,21.6,139.039,21.6Z" transform="translate(-86.566 -16.145)" fill="#fff"/>
      <path id="Path_157" data-name="Path 157" d="M150.573,18.02a5.02,5.02,0,0,0-2.224-1.011c-1.213.1-1.719,1.011-1.719,4.449h2.426v.607H146.63l.1,5.965a1.871,1.871,0,0,0,1.82.708v.4H144v-.3c.91-.1,1.213-.3,1.314-.607V22.064H143.9v-.3l1.314-.4a7.389,7.389,0,0,1,.4-2.325c.708-1.618,1.82-2.831,3.741-2.831.91,0,1.719.506,1.719.91A.948.948,0,0,1,150.573,18.02Z" transform="translate(-86.473 -16.2)" fill="#fff"/>
      <path id="Path_158" data-name="Path 158" d="M155.873,18.02a5.02,5.02,0,0,0-2.224-1.011c-1.213.1-1.719,1.011-1.719,4.449h2.426v.607H151.93l.1,5.965a1.871,1.871,0,0,0,1.82.708v.4H149.3v-.3c.91-.1,1.213-.3,1.314-.607V22.064H149.2v-.3l1.415-.4a7.389,7.389,0,0,1,.4-2.325c.708-1.618,1.82-2.831,3.741-2.831.91,0,1.719.506,1.719.91A1.024,1.024,0,0,1,155.873,18.02Z" transform="translate(-86.415 -16.2)" fill="#fff"/>
      <path id="Path_159" data-name="Path 159" d="M168.616,18.915l-4.347,10.414h-.708l-3.64-10.616c-.1-.506-1.112-.809-1.921-.91v-.3h5.257v.3a2.192,2.192,0,0,0-1.82.708l2.932,8.695,3.336-8.493a2.488,2.488,0,0,0-1.921-.91v-.3h4.651v.3A2.393,2.393,0,0,0,168.616,18.915Z" transform="translate(-86.317 -16.186)" fill="#fff"/>
      <path id="Path_160" data-name="Path 160" d="M170.1,29.138v-.3c.91-.1,1.011-.3,1.213-.607V23.072c0-.4-.4-.607-1.213-.708v-.2l2.224-.809h.2v6.976c.2.4.3.506,1.213.607v.2Zm1.618-10.919a.891.891,0,0,1-.91-.809.91.91,0,1,1,1.82,0A.827.827,0,0,1,171.718,18.219Z" transform="translate(-86.184 -16.197)" fill="#fff"/>
      <path id="Path_161" data-name="Path 161" d="M180.768,29.443h-.2l-.2-1.314a5.1,5.1,0,0,1-2.73,1.213c-1.618,0-3.134-1.314-3.134-3.741a4.262,4.262,0,0,1,5.864-4.044l-.1-3.235c0-.708-.3-.91-1.517-1.011v-.2l2.831-.809h.2v.2l-.3.607V27.725a1.22,1.22,0,0,0,.3.809l1.517-.2v.3Zm-.4-6.167a2.364,2.364,0,0,0-2.224-1.517c-1.415,0-2.224,1.618-2.224,3.336,0,1.82,1.011,3.336,2.831,3.336a3.549,3.549,0,0,0,1.618-.607Z" transform="translate(-86.135 -16.199)" fill="#fff"/>
      <path id="Path_162" data-name="Path 162" d="M186.935,29.187a3.366,3.366,0,0,1-3.235-3.64c0-2.629,1.517-4.347,3.741-4.347a2.35,2.35,0,0,1,2.629,2.629v.2l-4.954-.1c0,.3-.1.708-.1,1.011,0,2.123,1.314,3.438,2.831,3.438a3.137,3.137,0,0,0,2.224-.91l.2.2A4.509,4.509,0,0,1,186.935,29.187Zm.2-7.583c-1.011,0-1.719.708-1.921,2.123h3.539A1.959,1.959,0,0,0,187.138,21.6Z" transform="translate(-86.034 -16.145)" fill="#fff"/>
      <path id="Path_163" data-name="Path 163" d="M194.741,29.288c-2.224,0-3.741-1.719-3.741-4.145a3.825,3.825,0,0,1,3.943-3.943,3.75,3.75,0,0,1,3.741,4.044A3.971,3.971,0,0,1,194.741,29.288Zm-.2-7.684c-1.112,0-2.022,1.517-2.022,3.033,0,2.325.91,4.145,2.629,4.145,1.314,0,2.123-1.415,2.123-3.134C197.268,23.222,196.257,21.6,194.539,21.6Z" transform="translate(-85.953 -16.145)" fill="#fff"/>
      <path id="Path_164" data-name="Path 164" d="M209.677,29.128v-.3a2.192,2.192,0,0,0,1.82-.708l-1.314-3.842h-3.539l-1.314,3.64a2.592,2.592,0,0,0,1.82.91v.3H202.6v-.3a1.961,1.961,0,0,0,1.719-.708c.506-1.213,1.112-2.831,1.719-4.246.708-2.022,1.415-4.044,1.921-5.257a3.005,3.005,0,0,0,.2-1.213h1.618a5.017,5.017,0,0,0,.3,1.314c.607,1.921,1.112,3.539,1.618,5.055.4,1.314.91,2.629,1.517,4.246.2.506.809.809,1.719.809v.3Zm-.91-9.4-.3-1.011-.3,1.011-1.314,3.842h3.134Z" transform="translate(-85.825 -16.187)" fill="#fff"/>
      <path id="Path_165" data-name="Path 165" d="M219.756,22.919h-.1a3.352,3.352,0,0,0-1.517-.506c-.4,0-.708.3-1.112.708v5.055c.2.4.91.506,1.719.607v.3H214.6v-.3c.91-.1,1.011-.3,1.112-.607V23.02c0-.4-.3-.708-1.112-.809v-.2l2.224-.809h.1v1.719c.809-.91,1.517-1.618,2.224-1.618a2.4,2.4,0,0,1,1.213.3Z" transform="translate(-85.693 -16.145)" fill="#fff"/>
      <path id="Path_166" data-name="Path 166" d="M223.835,29.188c-1.82,0-3.235-1.517-3.235-3.741a4.171,4.171,0,0,1,4.246-4.347c1.314,0,1.921.607,2.022.91-.1.3-.3.809-.607.91a5.658,5.658,0,0,0-2.73-1.213c-.91.2-1.618,1.314-1.618,3.235,0,2.022,1.112,3.336,2.73,3.336a2.579,2.579,0,0,0,2.022-1.112l.2.3A3.573,3.573,0,0,1,223.835,29.188Z" transform="translate(-85.626 -16.146)" fill="#fff"/>
      <path id="Path_167" data-name="Path 167" d="M232.153,29.141v-.3c.91-.1,1.112-.3,1.213-.708a20.74,20.74,0,0,0,.2-3.134c0-1.82-.2-3.033-2.022-3.033a5.548,5.548,0,0,0-1.719.506V28.13c.2.4.3.506,1.112.607v.4H227.3v-.3c.91-.1,1.011-.3,1.213-.607V18.222c0-.607,0-.91-1.213-1.011v-.2l2.528-.809h.2v.2l-.2.708v5.257a6.008,6.008,0,0,1,2.629-1.213c2.224,0,2.426,2.022,2.426,3.842,0,1.112-.1,2.426-.2,3.438a5.751,5.751,0,0,0,1.618.3v.4Z" transform="translate(-85.552 -16.2)" fill="#fff"/>
      <path id="Path_168" data-name="Path 168" d="M236.7,29.138v-.3c.91-.1,1.011-.3,1.213-.607V23.072c0-.4-.4-.607-1.213-.708v-.2l2.224-.809h.2v6.976c.2.4.3.506,1.213.607v.2Zm1.719-10.919a.891.891,0,0,1-.91-.809.91.91,0,1,1,1.82,0A.891.891,0,0,1,238.419,18.219Z" transform="translate(-85.449 -16.197)" fill="#fff"/>
      <path id="Path_169" data-name="Path 169" d="M247.478,22.715l-2.73,6.37-.4.1-2.629-6.673a1.518,1.518,0,0,0-1.415-.91v-.3h3.842v.3a1.918,1.918,0,0,0-1.213.4l2.022,5.359,1.921-5.055c-.1-.3-.607-.607-1.314-.708v-.3h3.134v.3A1.687,1.687,0,0,0,247.478,22.715Z" transform="translate(-85.409 -16.144)" fill="#fff"/>
      <path id="Path_170" data-name="Path 170" d="M252.235,29.187A3.366,3.366,0,0,1,249,25.547c0-2.629,1.517-4.347,3.741-4.347a2.35,2.35,0,0,1,2.629,2.629v.2l-4.954-.1c0,.3-.1.708-.1,1.011,0,2.123,1.314,3.438,2.831,3.438a3.136,3.136,0,0,0,2.224-.91l.2.2A4.509,4.509,0,0,1,252.235,29.187Zm.2-7.583c-1.011,0-1.719.708-1.921,2.123h3.539A1.959,1.959,0,0,0,252.437,21.6Z" transform="translate(-85.313 -16.145)" fill="#fff"/>
    </g>
    <g id="Group_141" data-name="Group 141" transform="translate(223.745 2643.843)">
      <path id="Path_171" data-name="Path 171" d="M95.492,40.235c-.1-1.618-.809-2.022-2.123-2.022h-2.73v4.853l2.629-.1c1.213,0,1.719-.1,1.921-1.415h.2v3.64h-.3c-.1-1.517-.607-1.517-1.921-1.517H90.538v4.246c.3.607,1.314.91,2.123,1.011v.2H87.1v-.3a2.1,2.1,0,0,0,1.921-.91v-9.4a2.192,2.192,0,0,0-1.82-.708v-.3h6.774c1.011,0,1.213-.1,1.314-.506h.2v3.134h0Z" transform="translate(-87.1 -36.191)" fill="#fff"/>
      <path id="Path_172" data-name="Path 172" d="M100.441,49.288c-2.325,0-3.741-1.719-3.741-4.145a3.825,3.825,0,0,1,3.943-3.943,3.75,3.75,0,0,1,3.741,4.044A3.971,3.971,0,0,1,100.441,49.288Zm-.2-7.684c-1.112,0-2.022,1.517-2.022,3.033,0,2.325.91,4.145,2.629,4.145,1.314,0,2.123-1.415,2.123-3.134C102.867,43.222,101.957,41.6,100.239,41.6Z" transform="translate(-86.994 -36.145)" fill="#fff"/>
      <path id="Path_173" data-name="Path 173" d="M110.556,42.919h-.1a3.352,3.352,0,0,0-1.517-.506c-.4,0-.708.3-1.112.708v5.055c.2.4.91.506,1.719.607v.3H105.4v-.3c.91-.1,1.011-.3,1.112-.607V43.02c0-.4-.3-.708-1.112-.809v-.2l2.224-.809h.1v1.719c.809-.91,1.517-1.618,2.224-1.618a2.4,2.4,0,0,1,1.213.3Z" transform="translate(-86.898 -36.145)" fill="#fff"/>
      <path id="Path_174" data-name="Path 174" d="M123.589,49.127v-.3a1.972,1.972,0,0,0,1.719-.708v-4.55h-6.673v4.55c.2.4.91.607,1.719.708v.3H115.4v-.3a1.972,1.972,0,0,0,1.719-.708v-9.6A1.972,1.972,0,0,0,115.4,37.8v-.3h4.954v.3a1.972,1.972,0,0,0-1.719.708v4.347h6.673V38.511a1.972,1.972,0,0,0-1.719-.708v-.3h4.954v.3a1.972,1.972,0,0,0-1.719.708v9.6c.2.4.91.607,1.719.708v.3Z" transform="translate(-86.788 -36.186)" fill="#fff"/>
      <path id="Path_175" data-name="Path 175" d="M132.841,49.288c-2.325,0-3.741-1.719-3.741-4.145a3.825,3.825,0,0,1,3.943-3.943,3.75,3.75,0,0,1,3.741,4.044A3.971,3.971,0,0,1,132.841,49.288Zm-.2-7.684c-1.112,0-2.022,1.517-2.022,3.033,0,2.325.91,4.145,2.629,4.145,1.314,0,2.123-1.415,2.123-3.134C135.368,43.222,134.357,41.6,132.639,41.6Z" transform="translate(-86.636 -36.145)" fill="#fff"/>
      <path id="Path_176" data-name="Path 176" d="M137.6,49.141v-.3c.91-.1,1.112-.3,1.213-.607V38.323c0-.607,0-1.011-1.213-1.112v-.2l2.528-.809h.2v.2l-.3.607V48.231c.2.4.4.506,1.314.607v.3Z" transform="translate(-86.543 -36.2)" fill="#fff"/>
      <path id="Path_177" data-name="Path 177" d="M145.841,49.288c-2.224,0-3.741-1.719-3.741-4.145a3.825,3.825,0,0,1,3.943-3.943,3.75,3.75,0,0,1,3.741,4.044A3.971,3.971,0,0,1,145.841,49.288Zm-.2-7.684c-1.112,0-2.022,1.517-2.022,3.033,0,2.325.91,4.145,2.629,4.145,1.314,0,2.123-1.415,2.123-3.134C148.368,43.222,147.357,41.6,145.639,41.6Z" transform="translate(-86.493 -36.145)" fill="#fff"/>
      <path id="Path_178" data-name="Path 178" d="M154.035,49.188c-1.82,0-3.235-1.517-3.235-3.741a4.171,4.171,0,0,1,4.246-4.347c1.314,0,1.921.607,2.022.91-.1.3-.3.809-.607.91a5.658,5.658,0,0,0-2.73-1.213c-.91.2-1.618,1.314-1.618,3.235,0,2.022,1.112,3.336,2.73,3.336a2.579,2.579,0,0,0,2.022-1.112l.2.3A3.7,3.7,0,0,1,154.035,49.188Z" transform="translate(-86.397 -36.146)" fill="#fff"/>
      <path id="Path_179" data-name="Path 179" d="M163.058,49.289a1.322,1.322,0,0,1-1.314-1.213,3.491,3.491,0,0,1-2.325,1.213,1.68,1.68,0,0,1-1.719-1.618,3.229,3.229,0,0,1,.3-1.415l3.741-1.415V43.526a1.776,1.776,0,0,0-1.517-1.82c-.506,0-1.011.607-1.011,1.517l-1.314.2v-.1a3.839,3.839,0,0,1,3.235-2.224c1.618,0,2.123.809,2.123,2.224v3.943c0,.809.4,1.011.809,1.011a1.448,1.448,0,0,0,1.011-.4v.3A4.067,4.067,0,0,1,163.058,49.289Zm-3.741-3.033a3.439,3.439,0,0,0-.1,1.011c0,.607.3,1.213,1.011,1.213a2.689,2.689,0,0,0,1.618-.607v-2.73A19.1,19.1,0,0,0,159.318,46.256Z" transform="translate(-86.321 -36.146)" fill="#fff"/>
      <path id="Path_180" data-name="Path 180" d="M171.268,49.291h-.1l-.1-1.213a6.637,6.637,0,0,1-2.831,1.213c-1.618,0-2.022-1.011-2.022-2.528V42.82c0-.607-.3-.708-1.213-1.011v-.2l2.426-.506h.1v5.46a1.672,1.672,0,0,0,1.719,1.82,3.549,3.549,0,0,0,1.82-.607V42.719c0-.708-.3-.809-1.517-1.011v-.2l2.73-.506h.1v6.471a.728.728,0,0,0,.4.708l1.213-.2v.3Z" transform="translate(-86.24 -36.147)" fill="#fff"/>
      <path id="Path_181" data-name="Path 181" d="M177.33,49.288a5.6,5.6,0,0,1-2.528-.506l-.2-1.82h.4c.607,1.011,1.314,1.921,1.921,1.921,1.314,0,1.921-.708,1.921-1.415,0-.91-.809-1.213-1.719-1.618-1.517-.607-2.224-1.112-2.224-2.426s1.213-2.224,2.831-2.224a4.612,4.612,0,0,1,2.123.506l.1,1.719h-.3c-.506-1.011-1.213-1.82-1.82-1.82-1.415,0-1.719.809-1.719,1.314,0,.91.4,1.213,1.719,1.719,1.415.607,2.325,1.112,2.325,2.224A2.846,2.846,0,0,1,177.33,49.288Z" transform="translate(-86.134 -36.145)" fill="#fff"/>
      <path id="Path_182" data-name="Path 182" d="M183.932,49.2c-1.517,0-2.022-.91-2.022-2.325,0-1.719.1-3.033.1-4.752H181v-.2l2.123-2.123h.2v1.719h2.73v.708h-2.73c0,1.82-.1,3.033-.1,4.651a1.519,1.519,0,0,0,1.719,1.618,3.534,3.534,0,0,0,1.213-.3v.2A4.861,4.861,0,0,1,183.932,49.2Z" transform="translate(-86.064 -36.16)" fill="#fff"/>
      <path id="Path_183" data-name="Path 183" d="M200.814,40.436c0-1.517-.809-2.123-2.224-2.123h-2.123v9.5a2.371,2.371,0,0,0,2.224,1.011v.3h-5.965v-.3c.809,0,2.022-.3,2.224-.809V38.212h-2.123a1.99,1.99,0,0,0-2.224,2.123h-.2V37.1h.2c.1.3.3.506,1.314.506H199.3c1.011,0,1.213-.1,1.314-.506h.2v3.235h0Z" transform="translate(-85.96 -36.19)" fill="#fff"/>
      <path id="Path_184" data-name="Path 184" d="M203.135,49.187a3.366,3.366,0,0,1-3.235-3.64c0-2.629,1.517-4.347,3.741-4.347a2.35,2.35,0,0,1,2.629,2.629v.2l-4.954-.1c0,.3-.1.708-.1,1.011,0,2.123,1.314,3.438,2.831,3.438a3.136,3.136,0,0,0,2.224-.91l.2.2A4.509,4.509,0,0,1,203.135,49.187Zm.2-7.583c-1.011,0-1.719.708-1.921,2.123h3.539C204.955,42.514,204.247,41.6,203.338,41.6Z" transform="translate(-85.855 -36.145)" fill="#fff"/>
      <path id="Path_185" data-name="Path 185" d="M210.13,49.288a5.6,5.6,0,0,1-2.528-.506l-.2-1.82h.4c.607,1.011,1.314,1.921,1.921,1.921,1.314,0,1.921-.708,1.921-1.415,0-.91-.809-1.213-1.719-1.618-1.517-.607-2.224-1.112-2.224-2.426s1.213-2.224,2.831-2.224a4.612,4.612,0,0,1,2.123.506l.1,1.719h-.3c-.506-1.011-1.213-1.82-1.82-1.82-1.415,0-1.719.809-1.719,1.314,0,.91.4,1.213,1.719,1.719,1.415.607,2.325,1.112,2.325,2.224A2.7,2.7,0,0,1,210.13,49.288Z" transform="translate(-85.772 -36.145)" fill="#fff"/>
      <path id="Path_186" data-name="Path 186" d="M216.832,49.2c-1.517,0-2.022-.91-2.022-2.325,0-1.719.1-3.033.1-4.752H213.9v-.2l2.123-2.123h.2v1.719h2.73v.708h-2.73c0,1.82-.1,3.033-.1,4.651a1.519,1.519,0,0,0,1.719,1.618,3.534,3.534,0,0,0,1.213-.3v.2A4.861,4.861,0,0,1,216.832,49.2Z" transform="translate(-85.7 -36.16)" fill="#fff"/>
      <path id="Path_187" data-name="Path 187" d="M219.4,49.138v-.3c.91-.1,1.011-.3,1.213-.607V43.072c0-.4-.4-.607-1.213-.708v-.2l2.224-.809h.2v6.976c.2.4.3.506,1.213.607v.2Zm1.719-10.919a.891.891,0,0,1-.91-.809.91.91,0,1,1,1.82,0A.891.891,0,0,1,221.119,38.219Z" transform="translate(-85.64 -36.197)" fill="#fff"/>
      <path id="Path_188" data-name="Path 188" d="M235.425,49.087a9.83,9.83,0,0,0-1.82.1v-.3c.809-.1,1.011-.3,1.112-.607l-.1-4.347A1.708,1.708,0,0,0,233,42.111a5.251,5.251,0,0,0-1.921.607v5.46c.2.4.3.506,1.213.607v.3h-3.539v-.3c.91-.1,1.011-.3,1.112-.607V43.83a1.7,1.7,0,0,0-1.618-1.82,5.25,5.25,0,0,0-1.921.607v5.561c.2.4.3.506,1.213.607v.3H224v-.3c.91-.1,1.011-.3,1.112-.607V43.021c0-.4-.3-.607-1.112-.809v-.2l2.224-.91h.1v1.314a6.675,6.675,0,0,1,2.73-1.314,1.9,1.9,0,0,1,2.022,1.415,6.449,6.449,0,0,1,2.831-1.314c1.618,0,2.022,1.011,2.022,2.528l.1,4.651a3.015,3.015,0,0,0,1.517.4v.3Z" transform="translate(-85.589 -36.146)" fill="#fff"/>
      <path id="Path_189" data-name="Path 189" d="M241.641,49.288c-2.325,0-3.741-1.719-3.741-4.145a3.825,3.825,0,0,1,3.943-3.943,3.75,3.75,0,0,1,3.741,4.044A3.971,3.971,0,0,1,241.641,49.288Zm-.2-7.684c-1.112,0-2.022,1.517-2.022,3.033,0,2.325.91,4.145,2.629,4.145,1.314,0,2.123-1.415,2.123-3.134C244.067,43.222,243.157,41.6,241.439,41.6Z" transform="translate(-85.435 -36.145)" fill="#fff"/>
      <path id="Path_190" data-name="Path 190" d="M251.454,49.086v-.3c.91-.1,1.011-.3,1.112-.607V43.829a1.729,1.729,0,0,0-1.719-1.82,5.25,5.25,0,0,0-1.921.607v5.561c.2.4.3.506,1.213.607v.3H246.5v-.3c.91-.1,1.011-.3,1.213-.607V43.02c0-.4-.3-.607-1.112-.809v-.2l2.325-.809h.1v1.314a6.449,6.449,0,0,1,2.831-1.314c1.618,0,2.123,1.011,2.123,2.426v4.651c.4.3.708.3,1.517.4v.4Z" transform="translate(-85.34 -36.145)" fill="#fff"/>
      <path id="Path_191" data-name="Path 191" d="M255.8,49.138v-.3c.91-.1,1.011-.3,1.213-.607V43.072c0-.4-.4-.607-1.213-.708v-.2l2.224-.809h.2v6.976c.2.4.3.506,1.213.607v.2Zm1.719-10.919a.891.891,0,0,1-.91-.809.91.91,0,1,1,1.82,0A.891.891,0,0,1,257.519,38.219Z" transform="translate(-85.238 -36.197)" fill="#fff"/>
      <path id="Path_192" data-name="Path 192" d="M263.535,49.187a3.366,3.366,0,0,1-3.235-3.64c0-2.629,1.517-4.347,3.741-4.347a2.35,2.35,0,0,1,2.629,2.629v.2l-4.954-.1c0,.3-.1.708-.1,1.011,0,2.123,1.314,3.438,2.831,3.438a3.136,3.136,0,0,0,2.224-.91l.2.2A4.509,4.509,0,0,1,263.535,49.187Zm.2-7.583c-1.011,0-1.719.708-1.921,2.123h3.539A1.959,1.959,0,0,0,263.738,41.6Z" transform="translate(-85.188 -36.145)" fill="#fff"/>
      <path id="Path_193" data-name="Path 193" d="M270.53,49.288A5.6,5.6,0,0,1,268,48.783l-.2-1.82h.4c.607,1.011,1.314,1.921,1.921,1.921,1.314,0,1.921-.708,1.921-1.415,0-.91-.809-1.213-1.719-1.618-1.517-.607-2.224-1.112-2.224-2.426s1.213-2.224,2.831-2.224a4.612,4.612,0,0,1,2.123.506l.1,1.719h-.3c-.505-1.011-1.213-1.82-1.82-1.82-1.415,0-1.719.809-1.719,1.314,0,.91.4,1.213,1.719,1.719,1.415.607,2.325,1.112,2.325,2.224A2.7,2.7,0,0,1,270.53,49.288Z" transform="translate(-85.105 -36.145)" fill="#fff"/>
    </g>
  </g>
</svg>
