<svg xmlns="http://www.w3.org/2000/svg" width="69" height="70" viewBox="0 0 69 70">
  <g id="Group_143" data-name="Group 143" transform="translate(-132 -2607)">
    <rect id="Rectangle_112" data-name="Rectangle 112" width="69" height="70" transform="translate(132 2607)" fill="#02356b"/>
    <path id="Path_194" data-name="Path 194" d="M29.23,29.834,25.591,36v4.145c.4,1.011,1.517,1.112,2.528,1.112v.607H20.94V41.36c1.011-.1,2.224-.2,2.528-.809V36.3l-3.64-6.268A2.768,2.768,0,0,0,17.3,28.419v-.506h6.167v.506a3.784,3.784,0,0,0-1.82.506l3.438,5.965,3.336-5.864a3.646,3.646,0,0,0-2.022-.607v-.506h5.257v.506A2.543,2.543,0,0,0,29.23,29.834Zm7.178,12.132a1.611,1.611,0,0,1-1.82-1.415,3.8,3.8,0,0,1-2.629,1.415,2.039,2.039,0,0,1-2.224-1.82v-.1a4.12,4.12,0,0,1,.506-1.82l4.449-1.618V35.092c0-1.011-.506-1.921-1.517-1.921-.607,0-1.112.708-1.213,1.82l-1.921.3v-.2a4.43,4.43,0,0,1,3.943-2.73c2.022,0,2.73,1.011,2.73,2.73l-.1,4.651c0,.91.506,1.112.91,1.112a2.41,2.41,0,0,0,1.112-.607v.607a3.617,3.617,0,0,1-2.224,1.112Zm-4.347-3.539a5.217,5.217,0,0,0-.2,1.112,1.159,1.159,0,0,0,1.011,1.314h.1a2.386,2.386,0,0,0,1.618-.708V37.114A19.864,19.864,0,0,1,32.061,38.428Zm6.673,3.438V41.36c1.011-.1,1.314-.3,1.517-.708V29.228c0-.708-.1-1.011-1.618-1.112v-.4L42.677,26.7l.1.4-.607.809V40.855c.2.4.607.607,1.517.708v.506Zm10.211.1A4.164,4.164,0,0,1,44.8,37.821v-.2c0-3.134,1.921-5.257,4.651-5.257,2.224,0,3.336,1.213,3.336,3.134v.4l-5.965-.1a4.147,4.147,0,0,0-.1,1.112c0,2.224,1.415,3.741,3.336,3.741a3.286,3.286,0,0,0,2.528-1.112l.3.506a4.461,4.461,0,0,1-3.943,1.921Zm.1-8.9c-1.112,0-1.921.809-2.123,2.224l3.842-.1a1.858,1.858,0,0,0-1.719-2.123Z" transform="translate(131.953 2607.405)" fill="#fff"/>
  </g>
</svg>
