<svg xmlns="http://www.w3.org/2000/svg" width="21.477" height="15.373" viewBox="0 0 21.477 15.373">
  <g id="Group_97" data-name="Group 97" transform="translate(-188 -2063.291)">
    <path id="Path_100" data-name="Path 100" d="M196.317,2064.861l-3.478,2.569c-.593.438-1.079.708-1.079.6s-.6-.2-1.342-.2h-1.075a1.348,1.348,0,0,0-1.342,1.342v2.952a1.346,1.346,0,0,0,1.342,1.342h1.075a6.44,6.44,0,0,0,1.342-.071,7.09,7.09,0,0,1,1.079.726l3.478,2.566c.595.438,1.079.195,1.079-.545v-10.738C197.4,2064.669,196.911,2064.423,196.317,2064.861Z" transform="translate(0 0.462)"/>
    <path id="Path_101" data-name="Path 101" d="M196.549,2068.449a1.287,1.287,0,0,1,0,2.184l.98.957a2.653,2.653,0,0,0,0-4.1Z" transform="translate(2.926 1.438)"/>
    <path id="Path_102" data-name="Path 102" d="M199.672,2065.393l-.962.941a5.312,5.312,0,0,1,0,7.848l.962.942a6.662,6.662,0,0,0,0-9.731Z" transform="translate(3.666 0.719)"/>
    <path id="Path_103" data-name="Path 103" d="M201.826,2063.291l-.964.941a9.363,9.363,0,0,1,0,13.491l.964.941a10.718,10.718,0,0,0,0-15.373Z" transform="translate(4.402)"/>
  </g>
</svg>
