<svg xmlns="http://www.w3.org/2000/svg" width="18" height="18" viewBox="0 0 18 18">
  <g id="Group_1" data-name="Group 1" transform="translate(-380 -830.001)">
    <path id="Path_1" data-name="Path 1" d="M396.875,830h-15.75A1.129,1.129,0,0,0,380,831.126V843.5a1.129,1.129,0,0,0,1.125,1.125H384.5V848l4.641-3.375h7.734A1.128,1.128,0,0,0,398,843.5V831.126A1.128,1.128,0,0,0,396.875,830Zm-1.125,12.375h-13.5V832.251h13.5Z" transform="translate(0 0)" />
    <rect id="Rectangle_18" data-name="Rectangle 18" width="9.556" height="1.056" transform="translate(384.136 834.519)" />
    <rect id="Rectangle_19" data-name="Rectangle 19" width="9.556" height="1.056" transform="translate(384.136 836.779)" />
    <rect id="Rectangle_20" data-name="Rectangle 20" width="5.278" height="1.056" transform="translate(384.531 839.038)" />
  </g>
</svg>
