<svg id="Layer_1" data-name="Layer 1" xmlns="http://www.w3.org/2000/svg" viewBox="0 0 566.56 566.56"><defs><style>.cls-1{fill:#02356b;}.cls-2{fill:#fff;}</style></defs><rect class="cls-1" width="566.56" height="566.56"/><path class="cls-2" d="M228.68,234.75l-28.36,48.06v32.3c3.15,7.87,11.82,8.66,19.7,8.66v4.73H164.08v-3.94c7.88-.79,17.34-1.58,19.7-6.3V285.17l-28.36-48.84c-3.94-7.88-11-12.6-19.69-12.6v-3.94h48.05v3.94a29.5,29.5,0,0,0-14.18,3.93l26.78,46.48,26-45.69a28.42,28.42,0,0,0-15.76-4.72v-3.94h41v3.94C239.71,222.94,232.62,227.66,228.68,234.75Zm55.93,94.54a12.56,12.56,0,0,1-14.18-11c-4.72,6.3-12.6,10.24-20.48,11a15.9,15.9,0,0,1-17.33-14.18v-.79c0-4.73,1.58-9.45,3.94-14.18l34.66-12.61V275.72c0-7.88-3.94-15-11.82-15-4.72,0-8.66,5.51-9.45,14.18l-15,2.36v-1.57c4.73-12.61,17.33-20.48,30.73-21.27,15.75,0,21.27,7.88,21.27,21.27L286.19,312c0,7.09,3.94,8.66,7.09,8.66a18.72,18.72,0,0,0,8.66-4.73v4.73a28.16,28.16,0,0,1-17.33,8.67Zm-33.87-27.58a40.71,40.71,0,0,0-1.58,8.67c-.78,5.51,3.15,9.45,7.88,10.24h.79a18.57,18.57,0,0,0,12.6-5.51V291.47C266.49,294.62,255.47,299.35,250.74,301.71Zm52,26.79v-3.94c7.88-.79,10.24-2.36,11.82-5.51V230c0-5.52-.79-7.88-12.61-8.67v-3.15l31.51-7.88.79,3.15-4.72,6.31V320.62c1.57,3.15,4.72,4.73,11.81,5.51v3.94Zm79.57.79A32.45,32.45,0,0,1,350,297v-1.58c0-24.42,15-41,36.23-41,17.34,0,26,9.45,26,24.42V282l-46.48-.79a32.26,32.26,0,0,0-.79,8.67c0,17.33,11,29.15,26,29.15a25.64,25.64,0,0,0,19.7-8.67l2.36,3.94a34.78,34.78,0,0,1-30.72,15Zm.78-69.33c-8.66,0-15,6.3-16.54,17.33l29.94-.78c1.57-7.88-4.73-15.76-13.4-16.55Z" transform="translate(0.56)"/></svg>